<?xml version="1.0" encoding="UTF-8" standalone="no"?>
<svg width="44px" height="28px" viewBox="0 0 44 28" version="1.1" xmlns="http://www.w3.org/2000/svg" xmlns:xlink="http://www.w3.org/1999/xlink" xmlns:sketch="http://www.bohemiancoding.com/sketch/ns">
    <title>mail</title>
    <description>Created with Sketch (http://www.bohemiancoding.com/sketch)</description>
    <defs/>
    <g id="Page-1" stroke="none" stroke-width="1" fill="none" fill-rule="evenodd" sketch:type="MSPage">
        <g id="Imported-Layers" sketch:type="MSLayerGroup">
            <path d="M27.6743683,15.6060625 L22.7740512,19.9136875 C22.5548389,20.1063516 22.2777852,20.2027656 22.0006752,20.2027656 C21.7265473,20.2027656 21.4523069,20.1083203 21.2339949,19.919375 L16.3480818,15.6896797 L2.13765729,27.7156797 C2.55937084,27.8945625 3.02424041,27.9939844 3.5117289,27.9939844 L40.4892276,27.9939844 C40.8621586,27.9939844 41.2219233,27.9357969 41.5591253,27.8283359 L27.6743683,15.6060625 M0.421826087,1.90252344 C0.186240409,2.35599219 0.0532838875,2.86764844 0.0532838875,3.40796094 L0.0532838875,24.6325078 C0.0532838875,25.1889531 0.194173913,25.7148281 0.443094629,26.17825 L14.612445,14.1871406 L0.421826087,1.90252344 M43.4749258,1.71658594 L29.392844,14.0954297 L43.4070128,26.4316172 C43.7490537,25.9106094 43.9477289,25.2929687 43.9477289,24.6325078 L43.9477289,3.40796094 C43.9477289,2.79239844 43.7752737,2.2141875 43.4749258,1.71658594 M40.4892276,0.0465390625 L3.5117289,0.0465390625 C3.00567263,0.0465390625 2.5242046,0.1535625 2.08988747,0.345515625 L21.9948235,17.577 L41.6960205,0.258835937 C41.3198261,0.121625 40.9131355,0.0465390625 40.4892276,0.0465390625" id="Fill-1" fill="#606060" sketch:type="MSShapeGroup"/>
            <path d="M41.6960205,0.258835937 L21.9948235,17.577 L2.08988747,0.345515625 C1.36883887,0.664234375 0.77798977,1.21701562 0.421826087,1.90252344 L14.612445,14.1871406 L15.4092839,13.5127891 C15.6277084,13.328 15.897335,13.2373828 16.1657801,13.2373828 C16.4876215,13.2373828 16.8078312,13.3675937 17.0357647,13.6220547 C17.453821,14.0887578 17.4035192,14.7965234 16.923289,15.2029062 L16.3480818,15.6896797 L21.2339949,19.919375 C21.4523069,20.1083203 21.7265473,20.2027656 22.0006752,20.2027656 C22.2777852,20.2027656 22.5548389,20.1063516 22.7740512,19.9136875 L27.6743683,15.6060625 L27.199821,15.1883047 C26.7278619,14.7729531 26.6917954,14.0643672 27.1191918,13.6057031 C27.3467877,13.3614687 27.6597954,13.2373828 27.9740409,13.2373828 C28.2499693,13.2373828 28.5269105,13.3331406 28.7475294,13.5273359 L29.392844,14.0954297 L43.4749258,1.71658594 C43.0741432,1.05273437 42.4457647,0.532328125 41.6960205,0.258835937" id="Fill-2" fill="#E6E6C8" sketch:type="MSShapeGroup"/>
            <path d="M16.1657801,13.2373828 C15.897335,13.2373828 15.6277084,13.328 15.4092839,13.5127891 L0.443094629,26.17825 C0.809329923,26.8600391 1.40918159,27.4065859 2.13765729,27.7156797 L16.923289,15.2029062 C17.4035192,14.7965234 17.453821,14.0887578 17.0357647,13.6220547 C16.8078312,13.3675937 16.4876215,13.2373828 16.1657801,13.2373828" id="Fill-3" fill="#E6E6C8" sketch:type="MSShapeGroup"/>
            <path d="M27.9740409,13.2373828 C27.6597954,13.2373828 27.3467877,13.3614687 27.1191918,13.6057031 C26.6917954,14.0643672 26.7278619,14.7729531 27.199821,15.1883047 L41.5591253,27.8283359 C42.3274373,27.5836641 42.9792788,27.0831641 43.4070128,26.4316172 L28.7475294,13.5273359 C28.5269105,13.3331406 28.2499693,13.2373828 27.9740409,13.2373828" id="Fill-4" fill="#E6E6C8" sketch:type="MSShapeGroup"/>
        </g>
    </g>
</svg>