<?xml version="1.0" encoding="utf-8"?>
<!-- Generator: Adobe Illustrator 16.0.0, SVG Export Plug-In . SVG Version: 6.00 Build 0)  -->
<!DOCTYPE svg PUBLIC "-//W3C//DTD SVG 1.1//EN" "http://www.w3.org/Graphics/SVG/1.1/DTD/svg11.dtd">
<svg version="1.1" id="Layer_1" xmlns="http://www.w3.org/2000/svg" xmlns:xlink="http://www.w3.org/1999/xlink" x="0px" y="0px"
	 width="240px" height="240px" viewBox="0 0 240 240" enable-background="new 0 0 240 240" xml:space="preserve">
<g id="Layer_2">
	<path fill="#929292" d="M230,219c0,6-4.9,11-11,11h-44c-6,0-11-4.9-11-11v-44c0-6,4.9-11,11-11h44c6,0,11,4.9,11,11V219z"/>
	<path fill="#929292" d="M230,143c0,6-4.9,11-11,11h-44c-6,0-11-4.9-11-11V99c0-6,4.9-11,11-11h44c6,0,11,4.9,11,11V143z"/>
	<path fill="#929292" d="M224.4,70.8c-2.1,5.7-8.4,8.6-14,6.5l-41.2-15c-5.7-2.1-8.6-8.4-6.5-14l15-41.2c2.1-5.7,8.4-8.6,14-6.5
		l41.2,15c5.7,2.1,8.6,8.4,6.5,14L224.4,70.8z"/>
	<path fill="#7F8081" d="M218.1,88h-24.5l36.4,35.1V98.6C230,92.5,224.1,88,218.1,88z"/>
	<path fill="#929292" d="M152,65c0,6-4.9,11-11,11H97c-6,0-11-4.9-11-11V21c0-6,4.9-11,11-11h44c6,0,11,4.9,11,11V65z"/>
	<path fill="#929292" d="M76,65c0,6-4.9,11-11,11H21c-6,0-11-4.9-11-11V21c0-6,4.9-11,11-11h44c6,0,11,4.9,11,11V65z"/>
	<path fill="#929292" d="M152,98.8c0-6-4.7-10.8-10.8-10.8H21c-6,0-11,4.7-11,10.8V219c0,6,4.9,11,11,11h120.3c6,0,10.8-4.9,10.8-11
		L152,98.8L152,98.8z M20,98h56v12H20V98z M20,120h56v12H20V120z M20,142h44v12H20V142z M130,220H20v-12h110V220z M142,198H20v-12
		h122V198z M142,176H20v-12h122V176z M142,154H86V98h56V154z"/>
</g>
</svg>
