<?xml version="1.0" encoding="utf-8"?>
<!-- Generator: Adobe Illustrator 16.0.0, SVG Export Plug-In . SVG Version: 6.00 Build 0)  -->
<!DOCTYPE svg PUBLIC "-//W3C//DTD SVG 1.1//EN" "http://www.w3.org/Graphics/SVG/1.1/DTD/svg11.dtd">
<svg version="1.1" id="Layer_1" xmlns="http://www.w3.org/2000/svg" xmlns:xlink="http://www.w3.org/1999/xlink" x="0px" y="0px"
	 width="240px" height="240px" viewBox="0 0 240 240" enable-background="new 0 0 240 240" xml:space="preserve">
<g id="Layer_3">
	
		<line fill="none" stroke="#929292" stroke-width="2" stroke-miterlimit="10" stroke-dasharray="6" x1="219" y1="229" x2="120" y2="229"/>
	
		<line fill="none" stroke="#929292" stroke-width="2" stroke-miterlimit="10" stroke-dasharray="6" x1="229" y1="21" x2="229" y2="219"/>
	
		<line fill="none" stroke="#929292" stroke-width="2" stroke-miterlimit="10" stroke-dasharray="6" x1="120" y1="11" x2="219" y2="11"/>
	<g>
		<g>
			<path fill="none" stroke="#929292" stroke-width="2" stroke-miterlimit="10" d="M120,63.1c1,0.2,2,0.5,2.9,0.7"/>
			<path fill="none" stroke="#929292" stroke-width="2" stroke-miterlimit="10" stroke-dasharray="6.1877,6.1877" d="M128.8,65.8
				c19.1,7.7,28.6,25.5,28.6,53.6c0,29-10.5,47.4-31.6,55"/>
			<path fill="none" stroke="#929292" stroke-width="2" stroke-miterlimit="10" d="M122.9,175.4c-0.9,0.3-1.9,0.6-2.9,0.8"/>
		</g>
	</g>
	<g>
		<g>
			<path fill="none" stroke="#929292" stroke-width="2" stroke-miterlimit="10" d="M120,40.4c1,0.1,2,0.3,3,0.4"/>
			<path fill="none" stroke="#929292" stroke-width="2" stroke-miterlimit="10" stroke-dasharray="5.9931,5.9931" d="M128.9,41.9
				c14,3.2,25.7,9.2,35,18.2c14.3,13.8,21.4,33.3,21.4,58.4c0,26.6-7.4,47-22.2,61.1c-9.6,9.2-22,15.3-37.1,18.5"/>
			<path fill="none" stroke="#929292" stroke-width="2" stroke-miterlimit="10" d="M123,198.7c-1,0.2-2,0.3-3,0.5"/>
		</g>
	</g>
	<circle fill="none" stroke="#929292" stroke-width="2" stroke-miterlimit="10" cx="218.8" cy="218.8" r="10"/>
	<circle fill="none" stroke="#929292" stroke-width="2" stroke-miterlimit="10" cx="218.8" cy="21.2" r="10"/>
	<g>
		<path fill="#929292" d="M79.7,10l5.3,5v4.2l-4-3.7v18.4l4-3.7v4.2L79.7,39h24.2c5.7,0,10.1,0.7,16.1,1.4V10H79.7z"/>
		<path fill="#929292" d="M79.7,230l-4.7-4.9v-4.2l4,3.7v-18.4l-4,3.7v-4.2l4.7-4.7H54v-81l-5,5h-4.2l3.7-4h-33l3.7,4H15l-5-5v100
			c0,5.5,4.5,10,10,10H79.7z"/>
		<path fill="#929292" d="M85,209.9l-4-3.7v18.4l4-3.7v4.2l-5.3,4.9H120v-30.8c-7,1-13.4,1.8-20.8,1.8H79.7l5.3,4.7V209.9z"/>
		<path fill="#929292" d="M10,120l5-5h4.2l-3.7,3h33.1l-3.7-3H49l5,5V39h25.7L75,34.4v-4.2l4,3.7V15.5l-4,3.7V15l4.7-5H20
			c-5.5,0-10,4.5-10,10V120z"/>
	</g>
</g>
<g id="Layer_5">
	<g>
		<path fill="#7F8081" d="M85,209.9l-4-3.7v18.4l4-3.7v4.2l-5.3,4.9H120v-30.8c-7,1-13.4,1.8-20.8,1.8H79.7l5.3,4.7V209.9z"/>
		<polygon fill="#7F8081" points="79.7,201 54,201 75,221.5 75,220.8 79,224.6 79,206.2 75,209.9 75,205.7 		"/>
	</g>
	<polygon fill="#7F8081" points="54,120 49,125 44.8,125 48.5,121 15.5,121 19.2,125 15,125 10,120.1 54,164 	"/>
	<path fill="#7F8081" d="M79.7,39h24.2c1.8,0,3.5,0.2,5.2,0.3H109L79.9,10l5.1,5v4.2l-4-3.7v18.4l4-3.7v4.2L79.7,39z"/>
	<path fill="#7F8081" d="M81,62v117h18.2c7.7,0,13.8-1.2,20.8-2.8V63.1c-5-1.1-10.6-1.1-16.8-1.1H81z"/>
</g>
</svg>
